<svg xmlns="http://www.w3.org/2000/svg" xmlns:xlink="http://www.w3.org/1999/xlink" width="1920" height="1078" viewBox="0 0 1920 1078">
  <defs>
    <filter id="사각형_203" x="447.5" y="280.5" width="1751" height="1114" filterUnits="userSpaceOnUse">
      <feOffset dx="3" dy="3" input="SourceAlpha"/>
      <feGaussianBlur stdDeviation="7.5" result="blur"/>
      <feFlood flood-opacity="0.161"/>
      <feComposite operator="in" in2="blur"/>
      <feComposite in="SourceGraphic"/>
    </filter>
    <filter id="선_56" x="-4.5" y="55" width="1938" height="19" filterUnits="userSpaceOnUse">
      <feOffset dx="3" dy="3" input="SourceAlpha"/>
      <feGaussianBlur stdDeviation="3" result="blur-2"/>
      <feFlood flood-opacity="0.373"/>
      <feComposite operator="in" in2="blur-2"/>
      <feComposite in="SourceGraphic"/>
    </filter>
    <filter id="사각형_216" x="624.5" y="645.5" width="1432" height="670" filterUnits="userSpaceOnUse">
      <feOffset dy="3" input="SourceAlpha"/>
      <feGaussianBlur stdDeviation="7.5" result="blur-3"/>
      <feFlood flood-opacity="0.161"/>
      <feComposite operator="in" in2="blur-3"/>
      <feComposite in="SourceGraphic"/>
    </filter>
    <clipPath id="clip-웹_1920_25">
      <rect width="1920" height="1078"/>
    </clipPath>
  </defs>
  <g id="웹_1920_25" data-name="웹 1920 – 25" clip-path="url(#clip-웹_1920_25)">
    <g id="사각형_167" data-name="사각형 167" fill="#fff" stroke="#707070" stroke-width="1">
      <rect width="1920" height="1078" rx="15" stroke="none"/>
      <rect x="0.5" y="0.5" width="1919" height="1077" rx="14.5" fill="none"/>
    </g>
    <g transform="matrix(1, 0, 0, 1, 0, 0)" filter="url(#사각형_203)">
      <g id="사각형_203-2" data-name="사각형 203" transform="translate(467 300)" fill="#fff" stroke="rgba(112,112,112,0.33)" stroke-width="1">
        <rect width="1706" height="1069" rx="25" stroke="none"/>
        <rect x="0.5" y="0.5" width="1705" height="1068" rx="24.5" fill="none"/>
      </g>
    </g>
    <g transform="matrix(1, 0, 0, 1, 0, 0)" filter="url(#선_56)">
      <line id="선_56-2" data-name="선 56" x2="1920" transform="translate(1.5 61.5)" fill="none" stroke="rgba(112,112,112,0.39)" stroke-width="1"/>
    </g>
    <circle id="타원_61" data-name="타원 61" cx="12" cy="12" r="12" transform="translate(43 18)" fill="#ed6b5f"/>
    <circle id="타원_62" data-name="타원 62" cx="12" cy="12" r="12" transform="translate(87 18)" fill="#f4bf4f"/>
    <circle id="타원_63" data-name="타원 63" cx="12" cy="12" r="12" transform="translate(131 18)" fill="#61c554"/>
    <path id="패스_71" data-name="패스 71" d="M56.5-48.5c-10,2.1-19.2,2.7-35.9,2.8V-66.8H48.8V-77.3H7.5v42.2h7.8c20.6,0,31.2-.5,42.5-2.9ZM46.6-1.9C35-1.9,28.5-4.5,28.5-10.1c0-5.5,6.5-8.1,18.1-8.1,11.7,0,18.2,2.6,18.2,8.1C64.8-4.5,58.3-1.9,46.6-1.9Zm0-26.8c-18.9,0-31.1,7-31.1,18.6C15.5,1.7,27.7,8.7,46.6,8.7c19.1,0,31.2-7,31.2-18.8C77.8-21.7,65.7-28.7,46.6-28.7ZM77-61.7V-83.6H63.7v53.3H77V-51H89V-61.7Zm95.8-21.7H159.5v67.1h13.3ZM152.7-40.7c-15-4.8-21.4-16.6-21.4-28.8v-8.9H117.9v8.9c0,12.3-6.6,25.2-21.9,30.4l6.7,10.5a37.1,37.1,0,0,0,22.1-20.5A35.35,35.35,0,0,0,146-30.2Zm-28,37.2V-22.7H111.5V7h63.6V-3.5ZM230.1-64.3c-16.1,0-29.3,11-29.3,26.1S214-12,230.1-12s29.3-11.1,29.3-26.2S246.2-64.3,230.1-64.3Zm0,11.2c9.3,0,16.7,5.8,16.7,14.9,0,9.2-7.4,15-16.7,15-9.4,0-16.8-5.8-16.8-15C213.3-47.3,220.7-53.1,230.1-53.1Z" transform="translate(647 561)"/>
    <g transform="matrix(1, 0, 0, 1, 0, 0)" filter="url(#사각형_216)">
      <g id="사각형_216-2" data-name="사각형 216" transform="translate(647 665)" fill="#fff" stroke="rgba(112,112,112,0.31)" stroke-width="1">
        <rect width="1387" height="625" rx="25" stroke="none"/>
        <rect x="0.5" y="0.5" width="1386" height="624" rx="24.5" fill="none"/>
      </g>
    </g>
    <line id="선_64" data-name="선 64" x2="1386" transform="translate(647.5 627.5)" fill="none" stroke="#707070" stroke-width="2"/>
    <path id="패스_72" data-name="패스 72" d="M56.5-48.5c-10,2.1-19.2,2.7-35.9,2.8V-66.8H48.8V-77.3H7.5v42.2h7.8c20.6,0,31.2-.5,42.5-2.9ZM46.6-1.9C35-1.9,28.5-4.5,28.5-10.1c0-5.5,6.5-8.1,18.1-8.1,11.7,0,18.2,2.6,18.2,8.1C64.8-4.5,58.3-1.9,46.6-1.9Zm0-26.8c-18.9,0-31.1,7-31.1,18.6C15.5,1.7,27.7,8.7,46.6,8.7c19.1,0,31.2-7,31.2-18.8C77.8-21.7,65.7-28.7,46.6-28.7ZM77-61.7V-83.6H63.7v53.3H77V-51H89V-61.7Zm95.8-21.7H159.5v67.1h13.3ZM152.7-40.7c-15-4.8-21.4-16.6-21.4-28.8v-8.9H117.9v8.9c0,12.3-6.6,25.2-21.9,30.4l6.7,10.5a37.1,37.1,0,0,0,22.1-20.5A35.35,35.35,0,0,0,146-30.2Zm-28,37.2V-22.7H111.5V7h63.6V-3.5Zm93.2-73.9c-14.4,0-25.3,9.5-25.3,22.7,0,13.3,10.9,22.7,25.3,22.7s25.4-9.4,25.4-22.7C243.3-67.9,232.3-77.4,217.9-77.4Zm0,11.3c7.1,0,12.5,4.2,12.5,11.4S225-43.3,217.9-43.3s-12.5-4.2-12.5-11.4S210.8-66.1,217.9-66.1Zm34-17.5V8.8h13.2V-83.6ZM190.4-9.9c15.9,0,37.5-.2,57.3-4.2l-.8-9.5c-19.4,2.9-42,3-58.2,3ZM366.1-83.6V8.8h13.2V-83.6Zm-36.3,6.5c-13.9,0-24.2,12.6-24.2,32.8,0,20.3,10.3,33,24.2,33S354-24,354-44.3C354-64.5,343.7-77.1,329.8-77.1Zm0,11.9c6.8,0,11.5,7.3,11.5,20.9,0,13.7-4.7,21-11.5,21s-11.5-7.3-11.5-21C318.3-57.9,323-65.2,329.8-65.2Zm125.4-1.3H405.4v24.6H470v-10H418.4v-5.3h49.8V-81.7h-63v10h50ZM418.5-10.7h37.3v7.9H418.5Zm-13,18.2h63.2V-21.1H405.5ZM395-37v10.4h83.4V-37ZM528.6-70.4c12.4,0,19.8,3,19.8,8.6,0,5.7-7.4,8.5-19.8,8.5-12.3,0-19.7-2.8-19.7-8.5C508.9-67.4,516.3-70.4,528.6-70.4Zm0,27.6c20.1,0,33.4-7.3,33.4-19s-13.3-19-33.4-19c-20,0-33.3,7.3-33.3,19S508.6-42.8,528.6-42.8Zm-18.3,23H497.1V7h63.8V-3.5H510.3ZM487-36.5V-26h83.2V-36.5ZM662.2-52.2H624.3V-68.6h37.9ZM675.1-79H611.3v37.2h63.8Zm10,47H601.7v10.5h34.8V8.6h13.2V-21.5h35.4Zm22.4-22.9c0-7.3,4.9-11.7,11.6-11.7,6.8,0,11.8,4.4,11.8,11.7,0,7.2-5,11.6-11.8,11.6C712.4-43.3,707.5-47.7,707.5-54.9Zm50,5.6v27.5h13.2V-83.5H757.5V-60H742.9c-2.2-10.6-11.8-17.8-23.8-17.8-13.6,0-24.2,9.6-24.2,22.9,0,13.2,10.6,22.8,24.2,22.8,11.8,0,21.2-7,23.7-17.2Zm-10.8,22H733.2v2.5c0,9-9.8,19.9-29.1,22.7L709,8.2C723.8,6,734.3-.7,739.8-9.5,745.3-.6,755.9,6,770.9,8.2l4.8-10.3c-19.6-2.7-29-13.1-29-22.7ZM848.9-83.5V-34h13.3V-83.5ZM801-30V7.5h61.2V-30H849.1v8.6h-35V-30Zm13.1,18.7h35V-3h-35Zm-2-68.4C797.8-79.7,787-70.6,787-58c0,12.7,10.8,21.8,25.1,21.8s25-9.1,25-21.8C837.1-70.6,826.4-79.7,812.1-79.7Zm0,10.9c7,0,12.1,4.1,12.1,10.8,0,6.9-5.1,10.9-12.1,10.9s-12.2-4-12.2-10.9C799.9-64.7,805.1-68.8,812.1-68.8Zm83.5-6H882.5v60.7h8.2a218.434,218.434,0,0,0,45-4.3l-1.4-11a225.113,225.113,0,0,1-38.7,4Zm45.8-8.8V8.5h13.2V-83.6Zm30.5,9.5v10.6h12.4c-.7,18.5-4.3,31.8-16.5,45.3l10.3,7.5c16.4-18.2,18.7-38,18.7-63.4Zm28.1,0v10.6h9.8c-.7,20.5-4,35.9-16.2,51.3L1004-4.9c16.1-19.9,18.2-42.6,18.2-69.2Zm54.8,26.6h-11.9V-83.6h-13.3V8.5h13.3V-36.6h11.9Zm20.3,22.3h12.8c-1.5-14.1,15.9-18.9,15.9-33.1,0-12.8-8.8-19-20.8-19-8.7,0-15.8,4.1-21,10l8.1,7.4c3.2-3.3,6.7-5.6,11.1-5.6,5.2,0,8.5,3.2,8.5,8.2C1089.7-47.8,1072.7-41.3,1075.1-25.2Zm6.4,26.6c5.3,0,9.2-4.2,9.2-9.6,0-5.5-3.9-9.6-9.2-9.6-5.2,0-9.1,4.1-9.1,9.6C1072.4-2.8,1076.3,1.4,1081.5,1.4Z" transform="translate(728 818)"/>
    <path id="패스_73" data-name="패스 73" d="M56.5-48.5c-10,2.1-19.2,2.7-35.9,2.8V-66.8H48.8V-77.3H7.5v42.2h7.8c20.6,0,31.2-.5,42.5-2.9ZM46.6-1.9C35-1.9,28.5-4.5,28.5-10.1c0-5.5,6.5-8.1,18.1-8.1,11.7,0,18.2,2.6,18.2,8.1C64.8-4.5,58.3-1.9,46.6-1.9Zm0-26.8c-18.9,0-31.1,7-31.1,18.6C15.5,1.7,27.7,8.7,46.6,8.7c19.1,0,31.2-7,31.2-18.8C77.8-21.7,65.7-28.7,46.6-28.7ZM77-61.7V-83.6H63.7v53.3H77V-51H89V-61.7Zm95.8-21.7H159.5v67.1h13.3ZM152.7-40.7c-15-4.8-21.4-16.6-21.4-28.8v-8.9H117.9v8.9c0,12.3-6.6,25.2-21.9,30.4l6.7,10.5a37.1,37.1,0,0,0,22.1-20.5A35.35,35.35,0,0,0,146-30.2Zm-28,37.2V-22.7H111.5V7h63.6V-3.5Zm93.2-73.9c-14.4,0-25.3,9.5-25.3,22.7,0,13.3,10.9,22.7,25.3,22.7s25.4-9.4,25.4-22.7C243.3-67.9,232.3-77.4,217.9-77.4Zm0,11.3c7.1,0,12.5,4.2,12.5,11.4S225-43.3,217.9-43.3s-12.5-4.2-12.5-11.4S210.8-66.1,217.9-66.1Zm34-17.5V8.8h13.2V-83.6ZM190.4-9.9c15.9,0,37.5-.2,57.3-4.2l-.8-9.5c-19.4,2.9-42,3-58.2,3ZM319-74.8H305.8V-14h8a211.412,211.412,0,0,0,43.5-4L356-28.8A224.5,224.5,0,0,1,319-25Zm69,26H375.1V-83.6H361.9v92h13.2V-37.9H388Zm70.1-34.8V8.8h13.2V-83.6Zm-36.3,6.5c-13.9,0-24.2,12.6-24.2,32.8,0,20.3,10.3,33,24.2,33S446-24,446-44.3C446-64.5,435.7-77.1,421.8-77.1Zm0,11.9c6.8,0,11.5,7.3,11.5,20.9,0,13.7-4.7,21-11.5,21s-11.5-7.3-11.5-21C410.3-57.9,415-65.2,421.8-65.2Zm139.4,6.6H510.5V-80.2H497.3v32.1h63.9ZM509.7-20.8H496.4V6.6h65.3V-3.9h-52ZM487-38.7v10.6h83.4V-38.7ZM662.2-52.2H624.3V-68.6h37.9ZM675.1-79H611.3v37.2h63.8Zm10,47H601.7v10.5h34.8V8.6h13.2V-21.5h35.4Zm22.4-22.9c0-7.3,4.9-11.7,11.6-11.7,6.8,0,11.8,4.4,11.8,11.7,0,7.2-5,11.6-11.8,11.6C712.4-43.3,707.5-47.7,707.5-54.9Zm50,5.6v27.5h13.2V-83.5H757.5V-60H742.9c-2.2-10.6-11.8-17.8-23.8-17.8-13.6,0-24.2,9.6-24.2,22.9,0,13.2,10.6,22.8,24.2,22.8,11.8,0,21.2-7,23.7-17.2Zm-10.8,22H733.2v2.5c0,9-9.8,19.9-29.1,22.7L709,8.2C723.8,6,734.3-.7,739.8-9.5,745.3-.6,755.9,6,770.9,8.2l4.8-10.3c-19.6-2.7-29-13.1-29-22.7ZM848.9-83.5V-34h13.3V-83.5ZM801-30V7.5h61.2V-30H849.1v8.6h-35V-30Zm13.1,18.7h35V-3h-35Zm-2-68.4C797.8-79.7,787-70.6,787-58c0,12.7,10.8,21.8,25.1,21.8s25-9.1,25-21.8C837.1-70.6,826.4-79.7,812.1-79.7Zm0,10.9c7,0,12.1,4.1,12.1,10.8,0,6.9-5.1,10.9-12.1,10.9s-12.2-4-12.2-10.9C799.9-64.7,805.1-68.8,812.1-68.8Zm83.5-6H882.5v60.7h8.2a218.434,218.434,0,0,0,45-4.3l-1.4-11a225.113,225.113,0,0,1-38.7,4Zm45.8-8.8V8.5h13.2V-83.6Zm30.5,9.5v10.6h12.4c-.7,18.5-4.3,31.8-16.5,45.3l10.3,7.5c16.4-18.2,18.7-38,18.7-63.4Zm28.1,0v10.6h9.8c-.7,20.5-4,35.9-16.2,51.3L1004-4.9c16.1-19.9,18.2-42.6,18.2-69.2Zm54.8,26.6h-11.9V-83.6h-13.3V8.5h13.3V-36.6h11.9Zm20.3,22.3h12.8c-1.5-14.1,15.9-18.9,15.9-33.1,0-12.8-8.8-19-20.8-19-8.7,0-15.8,4.1-21,10l8.1,7.4c3.2-3.3,6.7-5.6,11.1-5.6,5.2,0,8.5,3.2,8.5,8.2C1089.7-47.8,1072.7-41.3,1075.1-25.2Zm6.4,26.6c5.3,0,9.2-4.2,9.2-9.6,0-5.5-3.9-9.6-9.2-9.6-5.2,0-9.1,4.1-9.1,9.6C1072.4-2.8,1076.3,1.4,1081.5,1.4Z" transform="translate(728 1001)"/>
    <line id="선_65" data-name="선 65" y2="122" transform="translate(960.5 456.5)" fill="none" stroke="#707070" stroke-width="3"/>
  </g>
</svg>
