<svg id="Master_Composition_Wireframe" data-name="Master/Composition/Wireframe" xmlns="http://www.w3.org/2000/svg" width="324" height="437.001" viewBox="0 0 324 437.001">
  <defs>
    <style>
      .cls-1 {
        fill: #baebff;
      }

      .cls-1, .cls-10, .cls-11, .cls-12, .cls-13, .cls-14, .cls-15, .cls-16, .cls-17, .cls-18, .cls-19, .cls-2, .cls-3, .cls-4, .cls-7, .cls-8, .cls-9 {
        fill-rule: evenodd;
      }

      .cls-16, .cls-18, .cls-2, .cls-4, .cls-6 {
        fill: #b8dbe9;
      }

      .cls-19, .cls-3 {
        fill: #8ab8f1;
      }

      .cls-4 {
        opacity: 0.3;
      }

      .cls-5 {
        fill: #70a2de;
      }

      .cls-7 {
        fill: #57331f;
      }

      .cls-8 {
        fill: #2c1b18;
      }

      .cls-9 {
        fill: #56919c;
      }

      .cls-10 {
        fill: #89c5cc;
      }

      .cls-11 {
        fill: #191847;
      }

      .cls-12 {
        fill: #e2bf00;
      }

      .cls-13 {
        fill: #ffd800;
      }

      .cls-14 {
        fill: rgba(0,0,0,0.1);
      }

      .cls-15 {
        fill: rgba(0,0,0,0.4);
      }

      .cls-16 {
        opacity: 0.906;
      }

      .cls-17 {
        fill: #6dd2fc;
        opacity: 0.866;
      }

      .cls-18, .cls-19 {
        opacity: 0.89;
      }

      .cls-20 {
        fill: #77d6fe;
        opacity: 0.908;
      }
    </style>
  </defs>
  <g id="UI">
    <g id="Cards" transform="translate(0 89)">
      <g id="Group" transform="translate(0 0)">
        <g id="Group-7">
          <path id="Rectangle-2" class="cls-1" d="M22.99,19.112h-.429a24.859,24.859,0,0,0-11.9,2.671,18.173,18.173,0,0,0-7.56,7.56,24.859,24.859,0,0,0-2.671,11.9V58.135A24.859,24.859,0,0,0,3.1,70.039a18.173,18.173,0,0,0,7.56,7.56,24.859,24.859,0,0,0,11.9,2.671h.429a24.859,24.859,0,0,0,11.9-2.671,18.173,18.173,0,0,0,7.56-7.56,24.859,24.859,0,0,0,2.671-11.9V41.247a24.859,24.859,0,0,0-2.671-11.9,18.173,18.173,0,0,0-7.56-7.56A24.859,24.859,0,0,0,22.99,19.112Z" transform="translate(103.449)"/>
          <path id="Rectangle-2-Copy-9" class="cls-2" d="M22.99,231.042h-.429a24.859,24.859,0,0,0-11.9,2.671,18.173,18.173,0,0,0-7.56,7.56,24.859,24.859,0,0,0-2.671,11.9v36a24.859,24.859,0,0,0,2.671,11.9,18.173,18.173,0,0,0,7.56,7.56,24.859,24.859,0,0,0,11.9,2.671h.429a24.859,24.859,0,0,0,11.9-2.671,18.173,18.173,0,0,0,7.56-7.56,24.859,24.859,0,0,0,2.671-11.9v-36a24.859,24.859,0,0,0-2.671-11.9,18.173,18.173,0,0,0-7.56-7.56A24.859,24.859,0,0,0,22.99,231.042Z" transform="translate(103.449)"/>
          <path id="Rectangle-2-Copy-8" class="cls-2" d="M126.865,155.869h-.429a24.859,24.859,0,0,0-11.9,2.671,18.173,18.173,0,0,0-7.56,7.56A24.859,24.859,0,0,0,104.3,178v16.888a24.859,24.859,0,0,0,2.671,11.9,18.173,18.173,0,0,0,7.56,7.56,24.859,24.859,0,0,0,11.9,2.671h.429a24.859,24.859,0,0,0,11.9-2.671,18.173,18.173,0,0,0,7.56-7.56,24.859,24.859,0,0,0,2.671-11.9V178a24.859,24.859,0,0,0-2.671-11.9,18.173,18.173,0,0,0-7.56-7.56A24.859,24.859,0,0,0,126.865,155.869Z" transform="translate(-104.3)"/>
          <path id="Rectangle-2-Copy" class="cls-3" d="M74.928,19.112H74.5a24.859,24.859,0,0,0-11.9,2.671,18.173,18.173,0,0,0-7.56,7.56,24.859,24.859,0,0,0-2.671,11.9V86.591a24.859,24.859,0,0,0,2.671,11.9,18.173,18.173,0,0,0,7.56,7.56,24.859,24.859,0,0,0,11.9,2.671h.429a24.859,24.859,0,0,0,11.9-2.671,18.173,18.173,0,0,0,7.56-7.56,24.859,24.859,0,0,0,2.671-11.9V41.247a24.859,24.859,0,0,0-2.671-11.9,18.173,18.173,0,0,0-7.56-7.56A24.859,24.859,0,0,0,74.928,19.112Z" transform="translate(-0.426)"/>
          <path id="Rectangle-2-Copy-4" class="cls-2" d="M126.865,75.6h-.429a24.859,24.859,0,0,0-11.9,2.671,18.173,18.173,0,0,0-7.56,7.56,24.859,24.859,0,0,0-2.671,11.9v26.231a24.859,24.859,0,0,0,2.671,11.9,18.173,18.173,0,0,0,7.56,7.56,24.859,24.859,0,0,0,11.9,2.671h.429a24.859,24.859,0,0,0,11.9-2.671,18.173,18.173,0,0,0,7.56-7.56,24.859,24.859,0,0,0,2.671-11.9V97.734a24.859,24.859,0,0,0-2.671-11.9,18.173,18.173,0,0,0-7.56-7.56A24.859,24.859,0,0,0,126.865,75.6Z" transform="translate(-104.3)"/>
          <path id="Rectangle-2-Copy-5" class="cls-2" d="M74.928,118.069H74.5a24.859,24.859,0,0,0-11.9,2.671,18.173,18.173,0,0,0-7.56,7.56,24.859,24.859,0,0,0-2.671,11.9v2.872a24.859,24.859,0,0,0,2.671,11.9,18.173,18.173,0,0,0,7.56,7.56,24.859,24.859,0,0,0,11.9,2.671h.429a24.859,24.859,0,0,0,11.9-2.671,18.173,18.173,0,0,0,7.56-7.56,24.859,24.859,0,0,0,2.671-11.9V140.2a24.859,24.859,0,0,0-2.671-11.9,18.173,18.173,0,0,0-7.56-7.56A24.859,24.859,0,0,0,74.928,118.069Z" transform="translate(-0.426)"/>
          <path id="Rectangle-2-Copy-2" class="cls-2" d="M126.865,19.112h-.429a24.859,24.859,0,0,0-11.9,2.671,18.173,18.173,0,0,0-7.56,7.56,24.859,24.859,0,0,0-2.671,11.9V44.12a24.859,24.859,0,0,0,2.671,11.9,18.173,18.173,0,0,0,7.56,7.56,24.859,24.859,0,0,0,11.9,2.671h.429a24.859,24.859,0,0,0,11.9-2.671,18.173,18.173,0,0,0,7.56-7.56A24.859,24.859,0,0,0,149,44.12V41.247a24.859,24.859,0,0,0-2.671-11.9,18.173,18.173,0,0,0-7.56-7.56A24.859,24.859,0,0,0,126.865,19.112Z" transform="translate(-104.3)"/>
          <path id="Rectangle-2-Copy-6" class="cls-3" d="M22.99,146.525h-.429a24.859,24.859,0,0,0-11.9,2.671,18.173,18.173,0,0,0-7.56,7.56,24.859,24.859,0,0,0-2.671,11.9v30.9a24.859,24.859,0,0,0,2.671,11.9,18.173,18.173,0,0,0,7.56,7.56,24.859,24.859,0,0,0,11.9,2.671h.429a24.859,24.859,0,0,0,11.9-2.671,18.173,18.173,0,0,0,7.56-7.56,24.859,24.859,0,0,0,2.671-11.9v-30.9a24.859,24.859,0,0,0-2.671-11.9,18.173,18.173,0,0,0-7.56-7.56A24.859,24.859,0,0,0,22.99,146.525Z" transform="translate(103.449)"/>
          <path id="Rectangle-2-Copy-3" class="cls-2" d="M22.99,89.614h-.429a24.859,24.859,0,0,0-11.9,2.671,18.173,18.173,0,0,0-7.56,7.56,24.859,24.859,0,0,0-2.671,11.9v2.872a24.859,24.859,0,0,0,2.671,11.9,18.173,18.173,0,0,0,7.56,7.56,24.859,24.859,0,0,0,11.9,2.671h.429a24.859,24.859,0,0,0,11.9-2.671,18.173,18.173,0,0,0,7.56-7.56,24.859,24.859,0,0,0,2.671-11.9v-2.872a24.859,24.859,0,0,0-2.671-11.9,18.173,18.173,0,0,0-7.56-7.56A24.859,24.859,0,0,0,22.99,89.614Z" transform="translate(103.449)"/>
          <path id="Rectangle-2-Copy-12" class="cls-3" d="M126.865,282.857h-.429a24.859,24.859,0,0,0-11.9,2.671,18.173,18.173,0,0,0-7.56,7.56,24.859,24.859,0,0,0-2.671,11.9v2.872a24.859,24.859,0,0,0,2.671,11.9,18.173,18.173,0,0,0,7.56,7.56,24.859,24.859,0,0,0,11.9,2.671h.429a24.859,24.859,0,0,0,11.9-2.671,18.173,18.173,0,0,0,7.56-7.56,24.859,24.859,0,0,0,2.671-11.9v-2.872a24.859,24.859,0,0,0-2.671-11.9,18.173,18.173,0,0,0-7.56-7.56A24.859,24.859,0,0,0,126.865,282.857Z" transform="translate(-104.3)"/>
          <path id="Rectangle" class="cls-2" d="M16.609,0H2.548a2.548,2.548,0,0,0,0,5.1H16.609a2.548,2.548,0,1,0,0-5.1Z" transform="translate(129.843 0)"/>
          <path id="Rectangle-Copy" class="cls-4" d="M45.132,0H31.071a2.548,2.548,0,1,0,0,5.1H45.132a2.548,2.548,0,1,0,0-5.1Z" transform="translate(72.797 0)"/>
          <path id="Rectangle-Copy-2" class="cls-4" d="M73.229,0H59.168a2.548,2.548,0,1,0,0,5.1H73.229a2.548,2.548,0,1,0,0-5.1Z" transform="translate(16.603 0)"/>
          <path id="Rectangle-Copy-3" class="cls-4" d="M101.752,0H87.691a2.548,2.548,0,1,0,0,5.1h14.061a2.548,2.548,0,0,0,0-5.1Z" transform="translate(-40.443 0)"/>
          <path id="Rectangle-Copy-4" class="cls-4" d="M129.849,0H115.788a2.548,2.548,0,1,0,0,5.1h14.061a2.548,2.548,0,1,0,0-5.1Z" transform="translate(-96.637 0)"/>
        </g>
      </g>
    </g>
    <g id="Profile" transform="translate(176 0)">
      <g id="Group-6">
        <path id="Rectangle-2-2" data-name="Rectangle" class="cls-2" d="M74.424,0A23.536,23.536,0,0,0,50.888,23.536v.144a23.536,23.536,0,1,0,47.072,0v-.144A23.536,23.536,0,0,0,74.424,0Z" transform="translate(-0.848 0)"/>
        <path id="Shape" class="cls-5" d="M76.566,17.942A1.265,1.265,0,0,1,77.837,19.2v.63h1.906a1.265,1.265,0,0,1,1.271,1.259v6.925a1.265,1.265,0,0,1-1.271,1.259H69.576A1.265,1.265,0,0,1,68.3,28.014V21.09a1.265,1.265,0,0,1,1.271-1.259h1.906V19.2a1.265,1.265,0,0,1,1.271-1.259Zm-2.142,3.305a3.077,3.077,0,1,0,3.3,3.069A3.192,3.192,0,0,0,74.424,21.247Zm-4,0a.708.708,0,1,0,.706.708A.707.707,0,0,0,70.423,21.247Zm4,.944a1.889,1.889,0,1,1-1.883,1.889A1.886,1.886,0,0,1,74.424,22.191Z" transform="translate(-1.319)"/>
        <path id="Rectangle-3" data-name="Rectangle" class="cls-3" d="M53.32,61.252H39.233a2.339,2.339,0,1,0,0,4.679H53.32a2.339,2.339,0,1,0,0-4.679Z" transform="translate(55.447)"/>
        <path id="Rectangle-Copy-2-2" data-name="Rectangle-Copy" class="cls-4" d="M81.467,61.252H67.381a2.339,2.339,0,0,0,0,4.679H81.467a2.339,2.339,0,0,0,0-4.679Z" transform="translate(-0.848)"/>
        <path id="Rectangle-Copy-2-3" data-name="Rectangle-Copy-2" class="cls-4" d="M109.615,61.252H95.529a2.339,2.339,0,1,0,0,4.679h14.086a2.339,2.339,0,1,0,0-4.679Z" transform="translate(-57.143)"/>
        <path id="Rectangle-4" data-name="Rectangle" class="cls-2" d="M145.64,113.147h-9.375a2.36,2.36,0,0,0,0,4.72h9.375a2.36,2.36,0,1,0,0-4.72Z" transform="translate(-133.905)"/>
        <path id="Rectangle-5" data-name="Rectangle" class="cls-2" d="M145.64,127.307H131.566a2.36,2.36,0,0,0,0,4.72H145.64a2.36,2.36,0,0,0,0-4.72Z" transform="translate(-129.206)"/>
        <path id="Rectangle-6" data-name="Rectangle" class="cls-2" d="M145.64,141.468h-4.677a2.36,2.36,0,0,0,0,4.72h4.677a2.36,2.36,0,0,0,0-4.72Z" transform="translate(-138.603)"/>
        <path id="Rectangle-7" data-name="Rectangle" class="cls-2" d="M145.651,155.628a2.349,2.349,0,0,0-2.349,2.349V158a2.349,2.349,0,1,0,4.7,0v-.022A2.349,2.349,0,0,0,145.651,155.628Z" transform="translate(-143.302)"/>
        <path id="Rectangle-8" data-name="Rectangle" class="cls-2" d="M145.64,169.789h-9.375a2.36,2.36,0,0,0,0,4.72h9.375a2.36,2.36,0,1,0,0-4.72Z" transform="translate(-133.905)"/>
        <path id="Rectangle-9" data-name="Rectangle" class="cls-2" d="M145.64,183.949h-4.677a2.36,2.36,0,0,0,0,4.72h4.677a2.36,2.36,0,0,0,0-4.72Z" transform="translate(-138.603)"/>
        <path id="Rectangle-10" data-name="Rectangle" class="cls-3" d="M145.651,198.11a2.349,2.349,0,0,0-2.349,2.349v.022a2.349,2.349,0,1,0,4.7,0v-.022A2.349,2.349,0,0,0,145.651,198.11Z" transform="translate(-143.302)"/>
        <path id="Rectangle-11" data-name="Rectangle" class="cls-2" d="M82.211,254.751H2.36a2.36,2.36,0,1,0,0,4.72H82.211a2.36,2.36,0,0,0,0-4.72Z" transform="translate(63.429)"/>
        <path id="Rectangle-12" data-name="Rectangle" class="cls-3" d="M145.64,212.27h-4.677a2.36,2.36,0,0,0,0,4.72h4.677a2.36,2.36,0,0,0,0-4.72Z" transform="translate(-138.603)"/>
        <path id="Rectangle-13" data-name="Rectangle" class="cls-2" d="M145.64,226.43h-9.375a2.36,2.36,0,0,0,0,4.72h9.375a2.36,2.36,0,1,0,0-4.72Z" transform="translate(-133.905)"/>
        <path id="Rectangle-14" data-name="Rectangle" class="cls-1" d="M35.227,240.591H2.36a2.36,2.36,0,1,0,0,4.72H35.227a2.36,2.36,0,1,0,0-4.72Z" transform="translate(110.413)"/>
        <path id="Rectangle-15" data-name="Rectangle" class="cls-3" d="M21.132,226.43H2.36a2.36,2.36,0,1,0,0,4.72H21.132a2.36,2.36,0,1,0,0-4.72Z" transform="translate(124.508)"/>
        <path id="Rectangle-16" data-name="Rectangle" class="cls-2" d="M16.434,212.27H2.36a2.36,2.36,0,0,0,0,4.72H16.434a2.36,2.36,0,0,0,0-4.72Z" transform="translate(129.206)"/>
        <path id="Rectangle-17" data-name="Rectangle" class="cls-2" d="M35.227,141.468H2.36a2.36,2.36,0,0,0,0,4.72H35.227a2.36,2.36,0,0,0,0-4.72Z" transform="translate(110.413)"/>
        <path id="Rectangle-18" data-name="Rectangle" class="cls-1" d="M54.021,127.307H2.36a2.36,2.36,0,0,0,0,4.72H54.021a2.36,2.36,0,1,0,0-4.72Z" transform="translate(91.619)"/>
        <path id="Rectangle-19" data-name="Rectangle" class="cls-2" d="M21.132,113.147H2.36a2.36,2.36,0,1,0,0,4.72H21.132a2.36,2.36,0,1,0,0-4.72Z" transform="translate(124.508)"/>
        <path id="Rectangle-2-3" data-name="Rectangle-2" class="cls-3" d="M138.642,85.073H9.358a9.358,9.358,0,0,0,0,18.716H138.642a9.358,9.358,0,0,0,0-18.716Z"/>
        <rect id="Rectangle-2-4" data-name="Rectangle-2" class="cls-6" width="68.275" height="23.82" rx="11.91" transform="translate(79.725 298.18)"/>
      </g>
    </g>
  </g>
  <g id="Character" transform="translate(2.489 1.758)">
    <g id="Head_Front" data-name="Head/Front" transform="translate(204.653 119.642) rotate(-153)">
      <g id="Head_Front_Chongo" data-name="Head/Front/Chongo" transform="translate(0)">
        <g id="Head" transform="translate(16.215 0)">
          <path id="SKIN" class="cls-7" d="M41.228,65.709c6.263-11.113,5.519-39.3-2.576-41.287-3.228-.792-10.105,1.148-17.1,5.164L25.941,0H0L8.93,39.622C3.95,45.186.579,52.006,1.142,59.647,2.765,81.665,34.965,76.821,41.228,65.709Z" transform="translate(0)"/>
        </g>
        <path id="hair" class="cls-8" d="M47.2,43.345a35.492,35.492,0,0,1-10.855,1.142,16.994,16.994,0,0,1,1.322,8.983c-.387,2.96-1.777,5.48-3.062,8.121a11.063,11.063,0,0,1-2.265,3.359,7.862,7.862,0,0,1-3.664,1.874,10.288,10.288,0,0,1-4.22,0c-.614-.123-1.164-.39-1.766-.538s-.915.215-1.363.584A7.947,7.947,0,0,1,17.3,68.358a10.862,10.862,0,0,1-4.577-.522A9.022,9.022,0,0,1,8.913,65.51a6.064,6.064,0,0,1-1.142-1.666c-.111-.253-.129-.4-.394-.5-.245-.086-.532-.088-.786-.17a9.728,9.728,0,0,1-5.683-4.9,14.86,14.86,0,0,1-.894-6.387c.086-2.663,2.612-9.61,4.974-12.144a16.088,16.088,0,0,1,8.2-4.408,22.007,22.007,0,0,1-4.284-7.6,35.654,35.654,0,0,1-1.961-9.237,28.728,28.728,0,0,1,.487-9.107,9.882,9.882,0,0,1,4.636-6.426,22.671,22.671,0,0,1,3.569-1.6A24.355,24.355,0,0,1,19.311.243c2.389-.47,5.143-.389,6.983,1.421a12.593,12.593,0,0,1,1.877,2.27c.174.287.279.474.068.754a5.58,5.58,0,0,1-.988.855,8.75,8.75,0,0,0-3.293,5.871c-.294,2.41.386,5.52,2.848,6.572,3.038,1.3,6.385-.192,9.085-1.581a14.241,14.241,0,0,0,7.2,9.1c4.088,1.957,8.778,2.186,12.979,3.865a7.8,7.8,0,0,1,3.015,1.826,3.686,3.686,0,0,1,.866,1.349c.177.647-.262,1.19-.6,1.694C57.553,36.911,50.741,42.317,47.2,43.345Z" transform="translate(0 34.466)"/>
      </g>
    </g>
    <g id="Bottom_Standing" data-name="Bottom/Standing" transform="translate(25.991 187.242)">
      <g id="Bottom_Standing_Skinny_Jeans_Walk" data-name="Bottom/Standing/Skinny Jeans Walk">
        <path id="Leg" class="cls-9" d="M247.32,0,195.392,132.018l-36.4,97.3H138.24L188.272,0Z" transform="translate(-95.04)"/>
        <path id="Leg-2" data-name="Leg" class="cls-10" d="M112.194,0c.564,45.3.156,106.285,1.472,109.109q1.315,2.824,81.814,64.344l-10.7,17.477q-95.571-59.215-100.457-67.1C79.439,115.935,54.892,43.336,42.12,0Z" transform="translate(52.92)"/>
        <path id="Shoe" class="cls-11" d="M68.957,185.214,50.889,172,36.311,188.694q-1.682,18.876-13.01,42.34L26.61,233.7,52.99,203.5l7.37-11.668,1.655,1.334Z" transform="translate(198.262)"/>
        <path id="Shoe-2" data-name="Shoe" class="cls-11" d="M290.52,248l-1.08-21.791H266.76q-16.131,10.9-42.12,17.64V248h41.04l14.04-2.075V248Z" transform="translate(-224.64)"/>
      </g>
    </g>
    <g id="Body" transform="translate(263.684 347.032) rotate(-166)">
      <g id="Body_Trench_Coat" data-name="Body/Trench Coat" transform="translate(0)">
        <path id="SKIN-2" data-name="SKIN" class="cls-7" d="M56.148,90.221,75.2,86.93q-33.175-62.794-35.537-66.4C36.124,15.113,39.7,5.359,41.05.213c-7.841-1.88-4.943,9.478-14.863,6.951C17.133,4.858,9.524-.8.908,6.516c-1.059.9-1.875,3.752,1.653,5.281,8.788,3.809,21.746,10.884,23.818,13.581q4.24,5.517,29.769,64.842ZM212.339,80.153l34.515-24.175a95.517,95.517,0,0,0,23.463-8.993c1.484-1.289,3.277-3.9-2.876-3.45s-12.646.662-13.5-1.34,2.874-4.4,1.158-7.1q-1.716-2.7-16.216,13.545L204.709,62.163Z" transform="translate(0 65.24)"/>
        <path id="Back-Arm" class="cls-12" d="M11.572,118.245C27.7,86.439,49.536,55.925,81.966,29.86A38.727,38.727,0,0,0,96.415,27.8a4.6,4.6,0,0,0,3.06-5.884,4.752,4.752,0,0,0-3.007-2.9q1.485-1.034,3-2.057L90.76,0C54.119,17.427,19.68,30.565,3.987,59.333-1.28,68.989.5,101.786,0,113.718Z" transform="translate(138.415 112.902)"/>
        <path id="Shirt" class="cls-11" d="M0,2.674q51.026-5.346,80.326,0c2.42.442,2.314,10.392,1.191,13.11-17.477,42.321-28.974,73.3-28.974,102.7q-4.81-2.4-16.837-.718C14.16,87.47,4.255,52.713,0,2.674Z" transform="translate(97.764 113.015)"/>
        <path id="Coat-Front" class="cls-13" d="M111.417,233.253c-3.623-45.7,46.42-145.477,29.044-230.69C108.344-4.278,62.491,17.007,17.859,0c1.661,34.316,34.929,74.631,47.908,110.685a4.508,4.508,0,0,0-1.462,4.191l.564,3.049a4.781,4.781,0,0,0,4.216,3.806q.549,2.321.938,4.614c2.184,12.9-1.548,25.542-1.372,37.96q-26.1-21.238-46.825-73.348h0L1.388,96.694q1.17,4.146,2.424,8.19C1.454,106.156-1.3,112.017.68,113a24.651,24.651,0,0,0,6.5,2.144q28.108,80.749,91.928,118.111h12.306Z" transform="translate(25.677 0.001)"/>
        <path id="Shade-Lapel" class="cls-14" d="M9.979,78.439,4.4,62.064,15.638,49.789,5.478,40.143,30.057,0,0,40.062l9.979,9.727L0,60.637Z" transform="translate(119.279 153.783)"/>
        <path id="Buttons" class="cls-15" d="M10.82,8.257a4.232,4.232,0,0,0,4.328-4.128A4.232,4.232,0,0,0,10.82,0,4.232,4.232,0,0,0,6.492,4.128,4.232,4.232,0,0,0,10.82,8.257ZM9.738,31.995a4.133,4.133,0,1,0,0-8.257,4.133,4.133,0,1,0,0,8.257ZM4.328,55.733a4.133,4.133,0,1,0,0-8.257,4.133,4.133,0,1,0,0,8.257Z" transform="translate(137.799 90.826)"/>
      </g>
    </g>
  </g>
  <g id="Foreground" transform="translate(0 155)">
    <path id="Rectangle-2-Copy-7" class="cls-16" d="M250,108a24.755,24.755,0,0,0-11.768,2.671,18.173,18.173,0,0,0-7.56,7.56A24.755,24.755,0,0,0,228,130v17a24.755,24.755,0,0,0,2.671,11.768,18.173,18.173,0,0,0,7.56,7.56,27.259,27.259,0,0,0,23.537,0,18.173,18.173,0,0,0,7.56-7.56A24.755,24.755,0,0,0,272,147V130a24.755,24.755,0,0,0-2.671-11.768,18.173,18.173,0,0,0-7.56-7.56A24.755,24.755,0,0,0,250,108Z" transform="translate(-176)"/>
    <path id="Rectangle-2-Copy-10" class="cls-17" d="M250,179a24.755,24.755,0,0,0-11.768,2.671,18.173,18.173,0,0,0-7.56,7.56A24.755,24.755,0,0,0,228,201v17a24.755,24.755,0,0,0,2.671,11.768,18.173,18.173,0,0,0,7.56,7.56,27.259,27.259,0,0,0,23.537,0,18.173,18.173,0,0,0,7.56-7.56A24.755,24.755,0,0,0,272,218V201a24.755,24.755,0,0,0-2.671-11.768,18.173,18.173,0,0,0-7.56-7.56A24.755,24.755,0,0,0,250,179Z" transform="translate(-176)"/>
    <path id="Rectangle-2-Copy-11" class="cls-1" d="M302,160a24.755,24.755,0,0,0-11.768,2.671,18.173,18.173,0,0,0-7.56,7.56A24.755,24.755,0,0,0,280,182v3a24.755,24.755,0,0,0,2.671,11.768,18.173,18.173,0,0,0,7.56,7.56,27.259,27.259,0,0,0,23.537,0,18.173,18.173,0,0,0,7.56-7.56A24.755,24.755,0,0,0,324,185v-3a24.755,24.755,0,0,0-2.671-11.768,18.173,18.173,0,0,0-7.56-7.56A24.755,24.755,0,0,0,302,160Z" transform="translate(-280)"/>
    <path id="Rectangle-20" data-name="Rectangle" class="cls-2" d="M145.5,99a2.5,2.5,0,1,0,2.5,2.5A2.5,2.5,0,0,0,145.5,99Z" transform="translate(33)"/>
    <path id="Rectangle-21" data-name="Rectangle" class="cls-2" d="M145.5,85h-9a2.5,2.5,0,0,0,0,5h9a2.5,2.5,0,0,0,0-5Z" transform="translate(42)"/>
    <path id="Rectangle-22" data-name="Rectangle" class="cls-18" d="M81.5,43H2.5a2.5,2.5,0,0,0,0,5h79a2.5,2.5,0,0,0,0-5Z" transform="translate(240)"/>
    <path id="Rectangle-23" data-name="Rectangle" class="cls-2" d="M30.5,29H2.5a2.5,2.5,0,0,0,0,5h28a2.5,2.5,0,0,0,0-5Z" transform="translate(291)"/>
    <path id="Rectangle-24" data-name="Rectangle" class="cls-2" d="M16.5,14H2.5a2.5,2.5,0,0,0,0,5h14a2.5,2.5,0,0,0,0-5Z" transform="translate(305)"/>
    <path id="Rectangle-25" data-name="Rectangle" class="cls-19" d="M67.5,0H2.5a2.5,2.5,0,0,0,0,5h65a2.5,2.5,0,0,0,0-5Z" transform="translate(254)"/>
    <rect id="Rectangle-2-5" data-name="Rectangle-2" class="cls-20" width="68" height="24" rx="12" transform="translate(176 143)"/>
  </g>
</svg>
