<svg xmlns="http://www.w3.org/2000/svg" width="528.291" height="419.869" viewBox="0 0 528.291 419.869">
  <defs>
    <style>
      .cls-1 {
        fill: #57331f;
      }

      .cls-1, .cls-2, .cls-3, .cls-4, .cls-5, .cls-6, .cls-7, .cls-8 {
        fill-rule: evenodd;
      }

      .cls-2 {
        fill: #191847;
      }

      .cls-3 {
        fill: #3d2216;
      }

      .cls-4 {
        fill: #e4e4e4;
      }

      .cls-5 {
        fill: #69a1ac;
      }

      .cls-6 {
        fill: #89c5cc;
      }

      .cls-7 {
        fill: #c9b337;
      }

      .cls-8 {
        fill: #ffd800;
      }

      .cls-9 {
        fill: #2b44ff;
      }

      .cls-10 {
        fill: rgba(132,180,255,0.35);
      }
    </style>
  </defs>
  <g id="그룹_81" data-name="그룹 81" transform="translate(-302.787 -1544)">
    <g id="humaaans_standing-2" data-name="humaaans/standing-2" transform="translate(302.787 1566.471)">
      <g id="humaaan-8" transform="translate(0 0)">
        <g id="Head_Front_Short-Beard" data-name="Head/Front/Short-Beard" transform="translate(118.796)">
          <g id="Head" transform="translate(0.111 1.983)">
            <path id="패스_22" data-name="패스 22" class="cls-1" d="M8.276,34.548C3.66,29.13.537,22.49,1.059,15.051,2.563-6.386,32.4-1.67,38.207,9.149s5.115,38.263-2.387,40.2c-2.992.771-9.365-1.118-15.851-5.028l4.071,28.8H0Z" transform="translate(0 0)"/>
          </g>
          <path id="Hair" class="cls-2" d="M77.482,49.666q1.38,19.228,7.3,19.228c5.923,0,10.948-3.76,13.546-3.76,1.894,0,1.471,2.371.216,4.128-1.036,1.45-6.081,2.848-6.081,5.1s3.986.509,3.986,1.842c0,2.206.7,6.352-3.127,6.352-3.874,0-14.982-1.412-16.885-7.162Q74.6,69.826,74.057,52.324a6.071,6.071,0,0,0-.717-.042,6.01,6.01,0,0,0-4.2,10.309c-1.391,1.963-2.949,4.013-4.735,6.129C57.7,64.7,52.718,52.912,59.277,41.592c1.813-5.545,5.917-8.507,10.765-9.883a17.436,17.436,0,0,1,11.444-.843c6.745.579,12.768,2.635,14.475,3.857,0,6.386-1.237,8.281-11.806,8.114C81.558,44.208,79.562,46.57,77.482,49.666Z" transform="translate(-56.2 -30.265)"/>
        </g>
        <g id="Bottom_Standing_Baggy-Pants" data-name="Bottom/Standing/Baggy-Pants" transform="translate(0 157.997)">
          <path id="Leg" class="cls-3" d="M139.748,0l49.164,124.435,32.974,105.2h13.021L184.5,0Z" transform="translate(-22.769)"/>
          <path id="Leg-2" data-name="Leg" class="cls-1" d="M125.589,0c-.524,43.727-8.158,102.6-9.378,105.325q-1.22,2.726-84.219,69.325l8.968,9.6q97.931-57.1,102.463-64.716c4.532-7.616,19.286-77.7,31.131-119.531Z" transform="translate(-18.51)"/>
          <g id="Accessories_Shoe_Flat-Sneaker" data-name="Accessories/Shoe/Flat-Sneaker" transform="matrix(0.643, 0.766, -0.766, 0.643, 15.859, 166.25)">
            <path id="shoe" class="cls-4" d="M1.681,6.08A21.508,21.508,0,0,0,0,12.8,50.261,50.261,0,0,0,.9,20.7H57.4q2.2-7.28-2.542-7.861t-7.883-1.048L20.715.087a1,1,0,0,0-1.323.507L19.381.62,17.693,4.715a18.014,18.014,0,0,1-7.138,2.049,16.166,16.166,0,0,1-6.163-1.8h0a2,2,0,0,0-2.656.986Q1.706,6.013,1.681,6.08Z" transform="translate(0 0)"/>
          </g>
          <g id="Accessories_Shoe_Flat-Sneaker-2" data-name="Accessories/Shoe/Flat-Sneaker" transform="translate(192.104 218.698)">
            <path id="shoe-2" data-name="shoe" class="cls-4" d="M2.724,26.241a21.508,21.508,0,0,0-1.681,6.715,50.261,50.261,0,0,0,.9,7.908h56.5q2.2-7.28-2.542-7.861t-7.883-1.048L21.758,20.248a1,1,0,0,0-1.323.507l-.011.026-1.688,4.094A18.014,18.014,0,0,1,11.6,26.925a16.166,16.166,0,0,1-6.163-1.8h0a2,2,0,0,0-2.656.986Q2.749,26.174,2.724,26.241Z" transform="translate(-1.043 -20.161)"/>
          </g>
          <path id="Pant" class="cls-5" d="M172.541,218.8l61.908-6.719L188.568,0H133.119Z" transform="translate(-22.507 0)"/>
          <path id="Pant-2" data-name="Pant" class="cls-6" d="M45.324,159.167l40.608,48.066q64.157-70.071,74.808-91.443T179.888,0H117.463q-4.642,83.065-6.258,86.93T45.324,159.167Z" transform="translate(-19.037)"/>
        </g>
        <g id="Body_Turtle-Neck" data-name="Body/Turtle-Neck" transform="translate(26.971 48.221)">
          <path id="Skin" class="cls-1" d="M200.741,95.4l28.375,27.681a86.008,86.008,0,0,1,20.294,11.666c1.186,1.43,2.477,4.171-3.1,2.945s-11.5-2.266-12.552-.451,2.041,4.6.1,6.97q-1.938,2.375-13.036-15.107l-29.507-17.4ZM61.985,70.343l21.934.082q-25.059,81.186-26.6,85.016C55,161.185,59.9,169.934,62,174.635c-6.831,3.057-6.1-8.264-14.721-4.255-7.866,3.659-13.849,10.29-22.937,4.683-1.117-.689-2.342-3.285.617-5.314,7.37-5.054,17.991-13.9,19.426-16.81Q47.32,146.985,61.985,70.343Z" transform="translate(-23.113 1.959)"/>
          <path id="Clothes-Back" class="cls-7" d="M0,2.235,8.5,0C26.3,46.86,99,73.5,104.859,91.089c2.149,6.45-2.3,10.194.324,11.986l-10.5,9.191c-2.093-2.05-5.791,2.358-14.5.263S4.978,59.129,0,2.235Z" transform="translate(105.903 7.854) rotate(5)"/>
          <path id="Clothes-Front" class="cls-8" d="M144.136,11.558c-1,63.856,35.915,80.145,27.693,105.761-6.79,21.154-71.78,43.894-83.026,23.158-4.552-8.394-6.618-18.545-6.852-29.582q-4.311,12.719-6.82,21.9c-2.885,10.558-14.068,12.236-14.068,16.3l-14.734-4.067c1-5.525-5.947-8.216-4.084-20.56Q54.761,41.506,109.507,4.193l.378-5.4a4.007,4.007,0,0,1,4.276-3.717L141.14-3.037a4.007,4.007,0,0,1,3.717,4.276Z" transform="translate(-23.857 4.934)"/>
        </g>
      </g>
    </g>
    <rect id="사각형_61" data-name="사각형 61" class="cls-9" width="196" height="195" rx="97.5" transform="translate(624.078 1583)"/>
    <rect id="사각형_62" data-name="사각형 62" class="cls-10" width="76" height="79" rx="38" transform="translate(755.078 1544)"/>
  </g>
</svg>
