<svg xmlns="http://www.w3.org/2000/svg" width="266.315" height="289.297" viewBox="0 0 266.315 289.297">
  <defs>
    <style>
      .cls-1 {
        fill: #b28b67;
      }

      .cls-1, .cls-10, .cls-2, .cls-4, .cls-5, .cls-6, .cls-7, .cls-8, .cls-9 {
        fill-rule: evenodd;
      }

      .cls-2 {
        fill: #191847;
      }

      .cls-3 {
        fill: #c5cfd6;
      }

      .cls-4 {
        fill: #1f28cf;
      }

      .cls-5 {
        fill: #2b44ff;
      }

      .cls-6 {
        fill: #e4e4e4;
      }

      .cls-7 {
        fill: #ad6c67;
      }

      .cls-8 {
        fill: #ff4133;
      }

      .cls-9 {
        fill: rgba(0,0,0,0.1);
      }

      .cls-10 {
        fill: rgba(0,0,0,0.4);
      }
    </style>
  </defs>
  <g id="humaaans_sitting-6" data-name="humaaans/sitting-6" transform="translate(0 0)">
    <g id="A-Human_Sitting" data-name="A-Human/Sitting" transform="translate(266.315 289.297) rotate(180)">
      <g id="Head_Front_Caesar" data-name="Head/Front/Caesar" transform="translate(102.487 223.939)">
        <g id="Head" transform="translate(1.743)">
          <path id="패스_23" data-name="패스 23" class="cls-1" d="M7.2,33.559C3.185,38.272.467,44.048.921,50.521,2.229,69.17,28.189,65.067,33.239,55.655s4.45-33.288-2.077-34.97c-2.6-.671-8.147.973-13.79,4.374L20.914,0H0Z"/>
        </g>
        <path id="Combined-Shape" class="cls-2" d="M15.45,11.444a4.193,4.193,0,0,1-2.379.756A4.488,4.488,0,0,1,8.714,7.843a5.174,5.174,0,0,1,2.638-4.834C10.523,1.389,9.69.214,8.714,0,4.948.381,0,9.742,0,17.429c0,8.413,6.694,15.686,19.171,15.686,11.214,0,15.467-4.624,15.686-8.714-4.806-1.321-13.2-1.829-25.271-1.743v-.871l10.457-.871,1.743-5.229C19.013,15.893,17.031,13.991,15.45,11.444Z" transform="translate(0 32.243)"/>
      </g>
      <g id="Bottom_Sitting_Sweat-Pants" data-name="Bottom/Sitting/Sweat-Pants" transform="translate(27.845 0)">
        <g id="Objects_Seat_Ball" data-name="Objects/Seat/Ball" transform="translate(0)">
          <ellipse id="Ballsy-Ball" class="cls-3" cx="67" cy="64" rx="67" ry="64" transform="translate(0 0)"/>
        </g>
        <path id="Skin" class="cls-1" d="M132.78,0C121.615,24.712,113.54,46.231,110.3,57.584c-5.55,19.439-9.771,36.545-10.839,42.933-2.545,15.233,19.574,16.12,22.5,8.55,4.425-11.458,12.15-49.106,21.432-105.97ZM3.268,77.554C13.512,81.6,49.387,94.275,66.689,97.86c4.972,1.03,9.791,1.987,14.322,2.852,13.467,2.571,20.444-21.724,7.474-23.591-32.3-4.649-78.094-9.45-82.012-9.988C.98,66.378-3.17,75.009,3.268,77.554Z" transform="translate(61.691 9.865)"/>
        <path id="Leg-Back" class="cls-4" d="M55.412,86.468,0,114.675v6.141H6.59Q87,100.326,88.771,94.553q.019-.062.035-.124l.08-.107C99.51,79.711,105.872,8.378,107.961,3.037L87.6,0C79.815,28.877,54.9,48.995,55.562,83.581A11.331,11.331,0,0,0,55.412,86.468Z" transform="translate(95.556 30.795)"/>
        <path id="Leg-Front" class="cls-5" d="M43.818,22.022c-5.07,1.015-9.739,1.921-13.734,2.621C4.278,29.17-3.247,42.984,1.2,73.123H48.749c7.767-2.231,48.131-19.158,69.074-28.161,13.861-5.959,9.492-27.44,1.642-33.03a.767.767,0,0,0-.435-.68C76.8-6.249,43.4,2.934,32.243,0L27.081,16.282Z" transform="translate(56.342 78.488)"/>
        <g id="Accessories_Shoe_Flat-Sneaker" data-name="Accessories/Shoe/Flat-Sneaker" transform="matrix(0.438, -0.899, 0.899, 0.438, 56.387, 85.744)">
          <path id="shoe" class="cls-6" d="M1.462,12.721A18.711,18.711,0,0,1,0,6.879,43.726,43.726,0,0,1,.785,0h49.15q1.916,6.334-2.212,6.839t-6.858.912L18.021,17.935a.871.871,0,0,1-1.151-.441l-.01-.023-1.468-3.562a15.672,15.672,0,0,0-6.21-1.783,14.064,14.064,0,0,0-5.361,1.568h0a1.743,1.743,0,0,1-2.311-.858Q1.484,12.779,1.462,12.721Z" transform="translate(0 0)"/>
        </g>
        <g id="Accessories_Shoe_Flat-Sneaker-2" data-name="Accessories/Shoe/Flat-Sneaker" transform="translate(187.928 1.725)">
          <path id="shoe-2" data-name="shoe" class="cls-6" d="M1.462,12.721A18.711,18.711,0,0,1,0,6.879,43.726,43.726,0,0,1,.785,0h49.15q1.916,6.334-2.212,6.839t-6.858.912L18.021,17.935a.871.871,0,0,1-1.151-.441l-.01-.023-1.468-3.562a15.672,15.672,0,0,0-6.21-1.783,14.064,14.064,0,0,0-5.361,1.568h0a1.743,1.743,0,0,1-2.311-.858Q1.484,12.779,1.462,12.721Z" transform="translate(0 0)"/>
        </g>
      </g>
      <g id="Body_Trench-Coat" data-name="Body/Trench-Coat" transform="translate(0 46.168)">
        <path id="Skin-2" data-name="Skin" class="cls-1" d="M174.812,57.8l26.305-22.3a74.823,74.823,0,0,0,18.32-8.893c1.116-1.169,2.4-3.47-2.514-2.744S206.8,25.134,206,23.5s2.05-3.864.513-6.042q-1.538-2.179-12.23,12.32L167.623,43.08ZM49.921,75.06l15.116-3.843Q34.686,20.192,32.575,17.284C29.41,12.923,31.709,4.506,32.49.1c-6.41-1.143-3.413,8.26-11.531,6.69C13.549,5.353,7.1,1.015.611,7.661c-.8.817-1.285,3.266,1.639,4.356,7.285,2.715,18.112,7.945,19.936,10.1Q25.917,26.527,49.921,75.06Z" transform="translate(5.236 52.9) rotate(4)"/>
        <path id="Back-Arm" class="cls-7" d="M66.012,25.212a29.875,29.875,0,0,0,11.638-1.741,3.922,3.922,0,0,0,.042-7.418q1.2-.873,2.416-1.737L73.094,0C43.585,14.713,15.85,25.806,3.211,50.1-1.031,58.249.4,85.941,0,96.016l9.32,3.822C22.312,72.983,39.894,47.22,66.012,25.212Z" transform="translate(116.054 95.326)"/>
        <path id="Shirt" class="cls-2" d="M0,2.257q41.094-4.514,64.692,0c1.949.373,1.863,8.775.96,11.069C51.576,49.06,42.317,75.218,42.317,100.038q-3.874-2.024-13.56-.607C11.4,73.854,3.427,44.507,0,2.257Z" transform="translate(83.315 95.421)"/>
        <path id="Coat-Front" class="cls-8" d="M52.966,93.454a3.918,3.918,0,0,0-1.177,3.54l.454,2.575a3.923,3.923,0,0,0,3.4,3.214q.439,1.961.753,3.9c1.759,10.889-1.247,21.567-1.105,32.052Q34.269,120.8,17.577,76.8L1.118,81.641q.942,3.5,1.951,6.913C1.17,89.633-1.05,94.58.548,95.407a19.221,19.221,0,0,0,5.238,1.811q22.636,68.18,74.034,99.725h9.911c-2.918-38.587,37.385-122.832,23.391-194.78C87.256-3.614,50.328,14.359,14.383,0c1.338,28.974,28.13,63.012,38.583,93.454Z" transform="translate(25.259)"/>
        <path id="Shade-Lapel" class="cls-9" d="M8.036,66.229,3.541,52.4l9.054-10.364L4.412,33.894,24.207,0,0,33.826l8.036,8.212L0,51.2Z" transform="translate(100.642 129.843)"/>
        <path id="Buttons" class="cls-10" d="M3.486,40.086a3.486,3.486,0,1,0,3.486,3.486A3.486,3.486,0,0,0,3.486,40.086ZM7.843,20.043a3.486,3.486,0,1,0,3.486,3.486A3.486,3.486,0,0,0,7.843,20.043ZM8.714,0A3.486,3.486,0,1,0,12.2,3.486,3.486,3.486,0,0,0,8.714,0Z" transform="translate(115.558 76.686)"/>
      </g>
    </g>
  </g>
</svg>
