<svg xmlns="http://www.w3.org/2000/svg" xmlns:xlink="http://www.w3.org/1999/xlink" width="55" height="55" viewBox="0 0 55 55">
  <defs>
    <clipPath id="clip-아트보드_2">
      <rect width="55" height="55"/>
    </clipPath>
  </defs>
  <g id="아트보드_2" data-name="아트보드 – 2" clip-path="url(#clip-아트보드_2)">
    <g id="그룹_87" data-name="그룹 87">
      <path id="패스_52" data-name="패스 52" d="M15,0H26A15,15,0,0,1,41,15V25A15,15,0,0,1,26,40H15A15,15,0,0,1,0,25V15A15,15,0,0,1,15,0Z" transform="translate(7 8)" fill="#b0b0b0"/>
      <path id="선_41" data-name="선 41" d="M16.582,16.792" transform="translate(19.182 19.188)" fill="none" stroke="#fff" stroke-linecap="round" stroke-width="3"/>
    </g>
    <g id="그룹_88" data-name="그룹 88" transform="translate(1 -1)">
      <circle id="타원_69" data-name="타원 69" cx="3" cy="3" r="3" transform="translate(15 26)" fill="#fff"/>
      <circle id="타원_76" data-name="타원 76" cx="3" cy="3" r="3" transform="translate(33 36)" fill="#fff"/>
      <path id="패스_69" data-name="패스 69" d="M18,16.9s5.044-.806,9.984,4.928,8.13,4.123,8.13,4.123" transform="translate(0 12.097)" fill="none" stroke="#fff" stroke-width="2"/>
      <ellipse id="타원_77" data-name="타원 77" cx="3" cy="3" rx="3" ry="3" transform="translate(33 15.923)" fill="#fff"/>
      <path id="패스_70" data-name="패스 70" d="M18,26.123s5.044.806,9.984-4.928,8.13-4.123,8.13-4.123" transform="translate(0 2.799)" fill="none" stroke="#fff" stroke-width="2"/>
    </g>
  </g>
</svg>
