<svg width="504" height="614" xmlns="http://www.w3.org/2000/svg" xmlns:xlink="http://www.w3.org/1999/xlink" overflow="hidden"><defs><clipPath id="clip0"><rect x="1388" y="385" width="504" height="614"/></clipPath></defs><g clip-path="url(#clip0)" transform="translate(-1388 -385)"><path d="M1808 403C1845 403 1875 433.221 1875 470.5" stroke="#fff" stroke-width="40" stroke-linecap="butt" stroke-linejoin="miter" stroke-miterlimit="8" stroke-opacity="1" fill="none" fill-rule="evenodd"/><path d="M1875 470 1875 824.315" stroke="#fff" stroke-width="40" stroke-linecap="butt" stroke-linejoin="miter" stroke-miterlimit="8" stroke-opacity="1" fill="none" fill-rule="evenodd"/><path d="M0 0 243.738 0.000360892" stroke="#fff" stroke-width="40" stroke-linecap="butt" stroke-linejoin="miter" stroke-miterlimit="8" stroke-opacity="1" fill="none" fill-rule="evenodd" transform="matrix(-1 0 0 1 1807.74 403)"/><path d="M1497 470.5C1497 433.221 1527.22 403 1564.5 403" stroke="#fff" stroke-width="40" stroke-linecap="butt" stroke-linejoin="miter" stroke-miterlimit="8" stroke-opacity="1" fill="none" fill-rule="evenodd"/><path d="M1497 470 1497 501.073" stroke="#fff" stroke-width="40" stroke-linecap="butt" stroke-linejoin="miter" stroke-miterlimit="8" stroke-opacity="1" fill="none" fill-rule="evenodd"/><path d="M1784 892 1808.59 892" stroke="#fff" stroke-width="40" stroke-linecap="butt" stroke-linejoin="miter" stroke-miterlimit="8" stroke-opacity="1" fill="none" fill-rule="evenodd"/><path d="M1875 825C1875 862.003 1845 892 1808 892" stroke="#fff" stroke-width="40" stroke-linecap="butt" stroke-linejoin="miter" stroke-miterlimit="8" stroke-opacity="1" fill="none" fill-rule="evenodd"/><path d="M1716.5 495C1753.78 495 1784 525.221 1784 562.5" stroke="#fff" stroke-width="40" stroke-linecap="butt" stroke-linejoin="miter" stroke-miterlimit="8" stroke-opacity="1" fill="none" fill-rule="evenodd"/><path d="M1784 562 1784 916.315" stroke="#fff" stroke-width="40" stroke-linecap="butt" stroke-linejoin="miter" stroke-miterlimit="8" stroke-opacity="1" fill="none" fill-rule="evenodd"/><path d="M0 0 243.738 0.000360892" stroke="#fff" stroke-width="40" stroke-linecap="butt" stroke-linejoin="miter" stroke-miterlimit="8" stroke-opacity="1" fill="none" fill-rule="evenodd" transform="matrix(-1 0 0 1 1716.74 495)"/><path d="M1405 562.5C1405 525.221 1435.22 495 1472.5 495" stroke="#fff" stroke-width="40" stroke-linecap="butt" stroke-linejoin="miter" stroke-miterlimit="8" stroke-opacity="1" fill="none" fill-rule="evenodd"/><path d="M1405 562 1405 916.315" stroke="#fff" stroke-width="40" stroke-linecap="butt" stroke-linejoin="miter" stroke-miterlimit="8" stroke-opacity="1" fill="none" fill-rule="evenodd"/><path d="M1472.5 984C1435.22 984 1405 954.003 1405 917" stroke="#fff" stroke-width="40" stroke-linecap="butt" stroke-linejoin="miter" stroke-miterlimit="8" stroke-opacity="1" fill="none" fill-rule="evenodd"/><path d="M1473 984 1716.74 984.001" stroke="#fff" stroke-width="40" stroke-linecap="butt" stroke-linejoin="miter" stroke-miterlimit="8" stroke-opacity="1" fill="none" fill-rule="evenodd"/><path d="M1784 917C1784 954.003 1753.78 984 1716.5 984" stroke="#fff" stroke-width="40" stroke-linecap="butt" stroke-linejoin="miter" stroke-miterlimit="8" stroke-opacity="1" fill="none" fill-rule="evenodd"/></g></svg>