<svg xmlns="http://www.w3.org/2000/svg" xmlns:xlink="http://www.w3.org/1999/xlink" width="55" height="55" viewBox="0 0 55 55">
  <defs>
    <clipPath id="clip-아트보드_6">
      <rect width="55" height="55"/>
    </clipPath>
  </defs>
  <g id="아트보드_6" data-name="아트보드 – 6" clip-path="url(#clip-아트보드_6)">
    <path id="패스_52" data-name="패스 52" d="M20.122,0H34.878A20.378,20.378,0,0,1,55,20.625v13.75A20.378,20.378,0,0,1,34.878,55H20.122A20.378,20.378,0,0,1,0,34.375V20.625A20.378,20.378,0,0,1,20.122,0Z" fill="#b0b0b0"/>
    <g id="그룹_96" data-name="그룹 96">
      <rect id="사각형_246" data-name="사각형 246" width="55" height="55" fill="rgba(255,255,255,0)"/>
    </g>
    <g id="다각형_1" data-name="다각형 1" transform="translate(11 25)" fill="none">
      <path d="M6.073,8.432a5,5,0,0,1,8.854,0l2.228,4.243A5,5,0,0,1,12.728,20H8.272a5,5,0,0,1-4.427-7.324Z" stroke="none"/>
      <path d="M 10.5 8.756523132324219 C 10.13652992248535 8.756523132324219 9.236379623413086 8.860813140869141 8.72920036315918 9.826864242553711 L 6.50137996673584 14.07033348083496 C 6.028109550476074 14.97181415557861 6.385100364685059 15.74429416656494 6.560549736022949 16.03457260131836 C 6.736000061035156 16.32485389709473 7.254010200500488 17.00000381469727 8.27217960357666 17.00000381469727 L 12.72782039642334 17.00000381469727 C 13.74598979949951 17.00000381469727 14.26399993896484 16.32485389709473 14.43944931030273 16.03457260131836 C 14.61490058898926 15.74429416656494 14.97188949584961 14.97181415557861 14.49862003326416 14.07033348083496 L 12.27079010009766 9.826864242553711 C 11.76362037658691 8.860813140869141 10.86347007751465 8.756523132324219 10.5 8.756523132324219 M 10.5 5.756528854370117 C 12.24522495269775 5.756528854370117 13.99044990539551 6.648473739624023 14.9269905090332 8.432363510131836 L 17.15480995178223 12.6758337020874 C 18.90271949768066 16.00518417358398 16.48810958862305 20.00000381469727 12.72782039642334 20.00000381469727 L 8.27217960357666 20.00000381469727 C 4.511890411376953 20.00000381469727 2.097280502319336 16.00518417358398 3.845190048217773 12.6758337020874 L 6.073010444641113 8.432363510131836 C 7.009550094604492 6.648473739624023 8.754775047302246 5.756528854370117 10.5 5.756528854370117 Z" stroke="none" fill="#fff"/>
    </g>
    <g id="다각형_2" data-name="다각형 2" transform="translate(19 21)" fill="#b0b0b0">
      <path d="M 16.75830841064453 22.49999618530273 L 8.24168872833252 22.49999618530273 C 7.007899284362793 22.49999618530273 5.889248847961426 21.87023735046387 5.249309062957764 20.81538581848145 C 4.609359264373779 19.76054573059082 4.567559242248535 18.47749710083008 5.137488842010498 17.38322639465332 L 9.395798683166504 9.207276344299316 C 10.00997924804688 8.028056144714355 11.17041873931885 7.324056625366211 12.49999904632568 7.324056625366211 C 13.82957935333252 7.324056625366211 14.99001884460449 8.028056144714355 15.60419940948486 9.207276344299316 L 19.86250877380371 17.38322639465332 C 20.43243980407715 18.47749710083008 20.39063835144043 19.76054573059082 19.75068855285645 20.81538581848145 C 19.11074829101562 21.87023735046387 17.99209976196289 22.49999618530273 16.75830841064453 22.49999618530273 Z" stroke="none"/>
      <path d="M 12.49999904632568 8.824047088623047 C 12.13517951965332 8.824047088623047 11.23203945159912 8.928905487060547 10.72616863250732 9.900177001953125 L 6.467859268188477 18.07612609863281 C 5.998439788818359 18.97742652893066 6.356159210205078 19.74792671203613 6.531759262084961 20.03736686706543 C 6.70734977722168 20.32679748535156 7.225469589233398 20.99999618530273 8.241689682006836 20.99999618530273 L 16.75830841064453 20.99999618530273 C 17.77452850341797 20.99999618530273 18.29264831542969 20.32679748535156 18.46823883056641 20.03736686706543 C 18.64383888244629 19.74792671203613 19.00156021118164 18.97742652893066 18.53213882446289 18.07612609863281 L 14.27382946014404 9.900177001953125 C 13.76795864105225 8.928905487060547 12.86481857299805 8.824047088623047 12.49999904632568 8.824047088623047 M 12.49999904632568 5.824050903320312 C 14.25021362304688 5.824050903320312 16.00042915344238 6.720827102661133 16.9345703125 8.514375686645508 L 21.19287872314453 16.69032669067383 C 22.92656898498535 20.01900672912598 20.51140975952148 23.99999618530273 16.75830841064453 23.99999618530273 L 8.241689682006836 23.99999618530273 C 4.488588333129883 23.99999618530273 2.073429107666016 20.01900672912598 3.807119369506836 16.69032669067383 L 8.0654296875 8.514375686645508 C 8.999568939208984 6.720827102661133 10.74978446960449 5.824050903320312 12.49999904632568 5.824050903320312 Z" stroke="none" fill="#fff"/>
    </g>
    <path id="패스_52-2" data-name="패스 52" d="M12.8,0H22.2A12.968,12.968,0,0,1,35,13.125v8.75A12.968,12.968,0,0,1,22.2,35H12.8A12.968,12.968,0,0,1,0,21.875v-8.75A12.968,12.968,0,0,1,12.8,0Z" transform="translate(10 10)" fill="none" stroke="#fff" stroke-width="3"/>
  </g>
</svg>
