<svg xmlns="http://www.w3.org/2000/svg" xmlns:xlink="http://www.w3.org/1999/xlink" width="55" height="55" viewBox="0 0 55 55">
  <defs>
    <clipPath id="clip-아트보드_6">
      <rect width="55" height="55"/>
    </clipPath>
  </defs>
  <g id="아트보드_6" data-name="아트보드 – 6" clip-path="url(#clip-아트보드_6)">
    <g id="그룹_96" data-name="그룹 96">
      <rect id="사각형_246" data-name="사각형 246" width="55" height="55" fill="rgba(255,255,255,0)"/>
    </g>
    <g id="사각형_41" data-name="사각형 41" transform="translate(8 7)" fill="#fff" stroke="#707070" stroke-width="3">
      <rect width="40" height="41" rx="15" stroke="none"/>
      <rect x="1.5" y="1.5" width="37" height="38" rx="13.5" fill="none"/>
    </g>
    <g id="다각형_1" data-name="다각형 1" transform="translate(9 25)" fill="#19894d">
      <path d="M 15.38409900665283 19.49999809265137 L 8.615899085998535 19.49999809265137 C 7.353838920593262 19.49999809265137 6.222178936004639 18.84830856323242 5.588708877563477 17.75673866271973 C 4.955248832702637 16.66516876220703 4.950889110565186 15.35928821563721 5.577039241790771 14.26351833343506 L 8.961138725280762 8.341338157653809 C 9.592148780822754 7.237078189849854 10.72816944122314 6.577827930450439 11.99999904632568 6.577827930450439 C 13.27181911468506 6.577827930450439 14.40783882141113 7.237078189849854 15.03884887695312 8.341338157653809 L 18.42294883728027 14.26350784301758 C 19.04910850524902 15.35928821563721 19.04474830627441 16.66516876220703 18.41127967834473 17.75673866271973 C 17.77781867980957 18.84831809997559 16.64615821838379 19.49999809265137 15.38409900665283 19.49999809265137 Z" stroke="none"/>
      <path d="M 11.99998950958252 8.077827453613281 C 11.65101909637451 8.077827453613281 10.78322887420654 8.176017761230469 10.26350879669189 9.085548400878906 L 6.879409790039062 15.00772762298584 C 6.363668441772461 15.91026782989502 6.712268829345703 16.70433807373047 6.886079788208008 17.00384902954102 C 7.05988883972168 17.30335807800293 7.576389312744141 17.99999809265137 8.615899085998535 17.99999809265137 L 15.38409900665283 17.99999809265137 C 16.42360877990723 17.99999809265137 16.94009971618652 17.30336761474609 17.11391830444336 17.00384902954102 C 17.28772926330566 16.70433807373047 17.63631820678711 15.91026782989502 17.12057876586914 15.00771808624268 L 13.73647880554199 9.085548400878906 C 13.21674919128418 8.176017761230469 12.34895896911621 8.077827453613281 11.99998950958252 8.077827453613281 M 11.9999942779541 5.077825546264648 C 13.69073390960693 5.077825546264648 15.38147449493408 5.917593002319336 16.34120941162109 7.597127914428711 L 19.72530937194824 13.5192985534668 C 21.63004875183105 16.85258865356445 19.22320938110352 20.99999809265137 15.38409900665283 20.99999809265137 L 8.615899085998535 20.99999809265137 C 4.776788711547852 20.99999809265137 2.369949340820312 16.85258865356445 4.274679183959961 13.51930809020996 L 7.658779144287109 7.597127914428711 C 8.618514060974121 5.917593002319336 10.30925369262695 5.077825546264648 11.9999942779541 5.077825546264648 Z" stroke="none" fill="#707070"/>
    </g>
    <g id="다각형_2" data-name="다각형 2" transform="translate(18 19)" fill="#5ed875">
      <path d="M 19.77522087097168 25.50000381469727 L 8.224780082702637 25.50000381469727 C 6.992310047149658 25.50000381469727 5.874279975891113 24.87126350402832 5.234049797058105 23.81812286376953 C 4.593830108642578 22.76497268676758 4.550310134887695 21.48302268981934 5.117640018463135 20.38889312744141 L 10.89286041259766 9.250972747802734 C 11.5061502456665 8.068202972412109 12.66769027709961 7.362073421478271 14 7.362073421478271 C 15.33230972290039 7.362073421478271 16.49385070800781 8.068202972412109 17.10713958740234 9.25096321105957 L 22.88236045837402 20.38889312744141 C 23.4496898651123 21.48302268981934 23.40616989135742 22.76497268676758 22.76594924926758 23.81812286376953 C 22.12571907043457 24.87126350402832 21.0076904296875 25.50000381469727 19.77522087097168 25.50000381469727 Z" stroke="none"/>
      <path d="M 14 8.86207389831543 C 13.63442993164062 8.86207389831543 12.72963047027588 8.967243194580078 12.22449016571045 9.941442489624023 L 6.449270248413086 21.0793628692627 C 5.981990814208984 21.98055267333984 6.340129852294922 22.74996185302734 6.515790939331055 23.0389232635498 C 6.691459655761719 23.3278923034668 7.209650039672852 24.00000381469727 8.22477912902832 24.00000381469727 L 19.77521896362305 24.00000381469727 C 20.79034996032715 24.00000381469727 21.30854034423828 23.3278923034668 21.48421096801758 23.0389232635498 C 21.65987014770508 22.74996185302734 22.01800918579102 21.98055267333984 21.55072975158691 21.0793628692627 L 15.77550983428955 9.941442489624023 C 15.27036952972412 8.967252731323242 14.36555957794189 8.86207389831543 14 8.86207389831543 M 14 5.862075805664062 C 15.75299263000488 5.862075805664062 17.50598526000977 6.76154899597168 18.43877029418945 8.560493469238281 L 24.2139892578125 19.69841384887695 C 25.93976974487305 23.02669334411621 23.52432060241699 27.00000381469727 19.77521896362305 27.00000381469727 L 8.22477912902832 27.00000381469727 C 4.475679397583008 27.00000381469727 2.060230255126953 23.02669334411621 3.7860107421875 19.69841384887695 L 9.561229705810547 8.560493469238281 C 10.49401473999023 6.76154899597168 12.24700736999512 5.862075805664062 14 5.862075805664062 Z" stroke="none" fill="#707070"/>
    </g>
  </g>
</svg>
