<svg xmlns="http://www.w3.org/2000/svg" xmlns:xlink="http://www.w3.org/1999/xlink" width="55" height="55" viewBox="0 0 55 55">
  <defs>
    <clipPath id="clip-아트보드_15">
      <rect width="55" height="55"/>
    </clipPath>
  </defs>
  <g id="아트보드_15" data-name="아트보드 – 15" clip-path="url(#clip-아트보드_15)">
    <path id="패스_52" data-name="패스 52" d="M20.122,0H34.878A20.378,20.378,0,0,1,55,20.625v13.75A20.378,20.378,0,0,1,34.878,55H20.122A20.378,20.378,0,0,1,0,34.375V20.625A20.378,20.378,0,0,1,20.122,0Z" fill="#b0b0b0"/>
    <g id="패스_136" data-name="패스 136" transform="translate(11 26)" fill="none">
      <path d="M6.073,8.432a5,5,0,0,1,8.854,0l2.228,4.243A5,5,0,0,1,12.728,20H8.272c-3.961-.888-6.175-3.995-4.427-7.324Z" stroke="none"/>
      <path d="M 10.50000095367432 8.756523132324219 C 10.13653087615967 8.756523132324219 9.236380577087402 8.860813140869141 8.729201316833496 9.826864242553711 L 6.501380920410156 14.07033348083496 C 6.12230110168457 14.79239368438721 6.234320640563965 15.21271419525146 6.351560592651367 15.46605396270752 C 6.591235160827637 15.98398017883301 7.314227104187012 16.63993072509766 8.635322570800781 17.00000381469727 L 12.72782135009766 17.00000381469727 C 13.74599075317383 17.00000381469727 14.26400089263916 16.32485389709473 14.43945121765137 16.03457260131836 C 14.61490058898926 15.74429416656494 14.97189140319824 14.97181415557861 14.49862098693848 14.07033348083496 L 12.27079105377197 9.826864242553711 C 11.76362133026123 8.860813140869141 10.86347103118896 8.756523132324219 10.50000095367432 8.756523132324219 M 10.50000095367432 5.756528854370117 C 12.24522590637207 5.756528854370117 13.99045085906982 6.648473739624023 14.9269905090332 8.432363510131836 L 17.15481185913086 12.6758337020874 C 18.9027214050293 16.00518417358398 16.48811149597168 20.00000381469727 12.72782135009766 20.00000381469727 L 8.272180557250977 20.00000381469727 C 4.310970306396484 19.11206436157227 2.097280502319336 16.00518417358398 3.845190048217773 12.6758337020874 L 6.07301139831543 8.432363510131836 C 7.009551048278809 6.648473739624023 8.754776000976562 5.756528854370117 10.50000095367432 5.756528854370117 Z" stroke="none" fill="#fff"/>
    </g>
    <g id="패스_135" data-name="패스 135" transform="translate(19 22)" fill="#b0b0b0">
      <path d="M 16.48880577087402 22.49999618530273 L 8.241689682006836 22.49999618530273 C 7.007900238037109 22.49999618530273 5.889249801635742 21.87023735046387 5.24931001663208 20.81538581848145 C 4.609360218048096 19.76054573059082 4.567560195922852 18.47749710083008 5.137489795684814 17.38322639465332 L 9.39579963684082 9.207276344299316 C 10.00998020172119 8.028056144714355 11.17041969299316 7.324056625366211 12.5 7.324056625366211 C 13.82958030700684 7.324056625366211 14.99001979827881 8.028056144714355 15.60420036315918 9.207276344299316 L 19.86251068115234 17.38322639465332 C 20.29505920410156 18.21373558044434 20.37338066101074 18.95518684387207 20.1019401550293 19.64996719360352 C 19.67171859741211 20.75115585327148 18.36129379272461 21.78207397460938 16.48880577087402 22.49999618530273 Z" stroke="none"/>
      <path d="M 12.5 8.824047088623047 C 12.13518047332764 8.824047088623047 11.23204040527344 8.928905487060547 10.72616958618164 9.900177001953125 L 6.467859268188477 18.07612609863281 C 5.998439788818359 18.97742652893066 6.356159210205078 19.74792671203613 6.531759262084961 20.03736686706543 C 6.70734977722168 20.32679748535156 7.225469589233398 20.99999618530273 8.241689682006836 20.99999618530273 L 16.20168304443359 20.99999618530273 C 17.74244689941406 20.36345672607422 18.51205444335938 19.5974178314209 18.70479011535645 19.10410690307617 C 18.75131034851074 18.98501586914062 18.86026954650879 18.70613670349121 18.53213882446289 18.07612609863281 L 14.27383041381836 9.900177001953125 C 13.76795959472656 8.928905487060547 12.86481952667236 8.824047088623047 12.5 8.824047088623047 M 12.5 5.824050903320312 C 14.25021457672119 5.824050903320312 16.00043106079102 6.720827102661133 16.9345703125 8.514375686645508 L 21.19288063049316 16.69032669067383 C 22.92657089233398 20.01900672912598 20.46966934204102 22.66326522827148 16.75831031799316 23.99999618530273 L 8.241689682006836 23.99999618530273 C 4.488590240478516 23.99999618530273 2.073429107666016 20.01900672912598 3.807119369506836 16.69032669067383 L 8.0654296875 8.514375686645508 C 8.999570846557617 6.720827102661133 10.74978542327881 5.824050903320312 12.5 5.824050903320312 Z" stroke="none" fill="#fff"/>
    </g>
    <path id="패스_52-2" data-name="패스 52" d="M12.8,0H22.2A12.968,12.968,0,0,1,35,13.125v8.75A12.968,12.968,0,0,1,22.2,35H12.8A12.968,12.968,0,0,1,0,21.875v-8.75A12.968,12.968,0,0,1,12.8,0Z" transform="translate(10 10)" fill="none" stroke="#fff" stroke-width="3"/>
  </g>
</svg>
