<svg xmlns="http://www.w3.org/2000/svg" xmlns:xlink="http://www.w3.org/1999/xlink" width="55" height="55" viewBox="0 0 55 55">
  <defs>
    <clipPath id="clip-아트보드_6">
      <rect width="55" height="55"/>
    </clipPath>
  </defs>
  <g id="아트보드_6" data-name="아트보드 – 6" clip-path="url(#clip-아트보드_6)">
    <path id="패스_52" data-name="패스 52" d="M18.293,0H31.707A18.526,18.526,0,0,1,50,18.75v12.5A18.526,18.526,0,0,1,31.707,50H18.293A18.526,18.526,0,0,1,0,31.25V18.75A18.526,18.526,0,0,1,18.293,0Z" transform="translate(3 3)" fill="#b0b0b0"/>
    <g id="그룹_89" data-name="그룹 89" transform="translate(-1.789 -2.605)">
      <path id="패스_96" data-name="패스 96" d="M1397.449-532.9c1.449-.139,4.642.963,5.06,2.671.6,1.513-1.573,2.845-2.755,1.816a3.314,3.314,0,0,0-4.278-.224s-4.848,4.716-6.26,6.294a2.938,2.938,0,0,0,.177,4.327c1.849,1.637,4-.315,4-.315l3.628-3.192a5.868,5.868,0,0,0,2.028.789,5.864,5.864,0,0,0,2.168-.174,60.381,60.381,0,0,1-5.546,5.521c-2.655,2.217-6.6,2.693-9.294,0-2.973-2.974-1.537-7.544,0-9.113,5.838-5.96,6.734-6.711,6.734-6.711S1394.306-532.6,1397.449-532.9Z" transform="translate(-1370 557.858)" fill="#fff" stroke="#b0b0b0" stroke-width="1"/>
      <path id="패스_97" data-name="패스 97" d="M12.8.012c1.449-.139,4.642.963,5.059,2.671.6,1.513-1.572,2.845-2.755,1.816a3.314,3.314,0,0,0-4.278-.224S5.981,8.99,4.569,10.568A2.939,2.939,0,0,0,4.746,14.9c1.849,1.637,4-.315,4-.315l3.629-3.192a5.87,5.87,0,0,0,2.028.788A5.865,5.865,0,0,0,16.573,12a60.386,60.386,0,0,1-5.547,5.52c-2.655,2.217-6.6,2.694-9.294,0-2.974-2.974-1.537-7.544,0-9.113C7.57,2.449,8.466,1.7,8.466,1.7S9.66.312,12.8.012Z" transform="translate(43.932 35.26) rotate(180)" fill="#fff" stroke="#b0b0b0" stroke-width="1"/>
    </g>
  </g>
</svg>
