<svg xmlns="http://www.w3.org/2000/svg" xmlns:xlink="http://www.w3.org/1999/xlink" width="55" height="55" viewBox="0 0 55 55">
  <defs>
    <clipPath id="clip-path">
      <rect id="사각형_244" data-name="사각형 244" width="31" height="36" transform="translate(1386 383)"/>
    </clipPath>
    <clipPath id="clip-아트보드_6">
      <rect width="55" height="55"/>
    </clipPath>
  </defs>
  <g id="아트보드_6" data-name="아트보드 – 6" clip-path="url(#clip-아트보드_6)">
    <path id="패스_52" data-name="패스 52" d="M18.293,0H31.707A18.526,18.526,0,0,1,50,18.75v12.5A18.526,18.526,0,0,1,31.707,50H18.293A18.526,18.526,0,0,1,0,31.25V18.75A18.526,18.526,0,0,1,18.293,0Z" transform="translate(3 3)" fill="#b0b0b0"/>
    <g id="duplicate" transform="translate(-1374 -373)" clip-path="url(#clip-path)">
      <path id="패스_98" data-name="패스 98" d="M1807.95,403a3.46,3.46,0,0,1,3.459,3.414" transform="translate(-398.062 -16.392)" fill="none" stroke="#fff" stroke-miterlimit="8" stroke-width="2" fill-rule="evenodd"/>
      <path id="패스_99" data-name="패스 99" d="M1875,470v17.934" transform="translate(-461.653 -80.001)" fill="none" stroke="#fff" stroke-miterlimit="8" stroke-width="2" fill-rule="evenodd"/>
      <path id="패스_100" data-name="패스 100" d="M0,0H12.337" transform="translate(1409.942 386.607) rotate(180)" fill="none" stroke="#fff" stroke-miterlimit="8" stroke-width="2" fill-rule="evenodd"/>
      <path id="패스_101" data-name="패스 101" d="M1497,406.417a3.416,3.416,0,0,1,3.417-3.417" transform="translate(-102.787 -16.393)" fill="none" stroke="#fff" stroke-miterlimit="8" stroke-width="2" fill-rule="evenodd"/>
      <path id="패스_102" data-name="패스 102" d="M1497,470v1.573" transform="translate(-102.787 -80.001)" fill="none" stroke="#fff" stroke-miterlimit="8" stroke-width="2" fill-rule="evenodd"/>
      <path id="패스_103" data-name="패스 103" d="M1784,892h1.245" transform="translate(-375.259 -480.641)" fill="none" stroke="#fff" stroke-miterlimit="8" stroke-width="2" fill-rule="evenodd"/>
      <path id="패스_104" data-name="패스 104" d="M1811.389,824.9a3.5,3.5,0,0,1-3.389,3.522" transform="translate(-398.045 -417.066)" fill="none" stroke="#fff" stroke-miterlimit="8" stroke-width="2" fill-rule="evenodd"/>
      <path id="패스_105" data-name="패스 105" d="M1716.5,495a3.417,3.417,0,0,1,3.417,3.417" transform="translate(-311.176 -103.736)" fill="none" stroke="#fff" stroke-miterlimit="8" stroke-width="2" fill-rule="evenodd"/>
      <path id="패스_106" data-name="패스 106" d="M1784,562v17.934" transform="translate(-375.259 -167.345)" fill="none" stroke="#fff" stroke-miterlimit="8" stroke-width="2" fill-rule="evenodd"/>
      <path id="패스_107" data-name="패스 107" d="M0,0H12.363" transform="translate(1405.336 391.264) rotate(180)" fill="none" stroke="#fff" stroke-miterlimit="8" stroke-width="2" fill-rule="evenodd"/>
      <path id="패스_108" data-name="패스 108" d="M1405,498.417a3.532,3.532,0,0,1,3.547-3.418" transform="translate(-15.443 -103.736)" fill="none" stroke="#fff" stroke-miterlimit="8" stroke-width="2" fill-rule="evenodd"/>
      <path id="패스_109" data-name="패스 109" d="M1405,562v17.934" transform="translate(-15.443 -167.345)" fill="none" stroke="#fff" stroke-miterlimit="8" stroke-width="2" fill-rule="evenodd"/>
      <path id="패스_110" data-name="패스 110" d="M1408.585,920.416A3.617,3.617,0,0,1,1405,916.95" transform="translate(-15.444 -504.393)" fill="none" stroke="#fff" stroke-miterlimit="8" stroke-width="2" fill-rule="evenodd"/>
      <path id="패스_111" data-name="패스 111" d="M1473,984h12.337" transform="translate(-80.001 -567.984)" fill="none" stroke="#fff" stroke-miterlimit="8" stroke-width="2" fill-rule="evenodd"/>
      <path id="패스_112" data-name="패스 112" d="M1719.915,916.862a3.565,3.565,0,0,1-3.415,3.577" transform="translate(-311.176 -504.423)" fill="none" stroke="#fff" stroke-miterlimit="8" stroke-width="2" fill-rule="evenodd"/>
    </g>
    <line id="선_67" data-name="선 67" x2="9.5" transform="translate(20.5 24.5)" fill="none" stroke="#fff" stroke-linecap="round" stroke-width="2"/>
    <line id="선_68" data-name="선 68" x2="9.5" transform="translate(20.5 36.5)" fill="none" stroke="#fff" stroke-linecap="round" stroke-width="2"/>
    <line id="선_69" data-name="선 69" x2="9.5" transform="translate(20.5 30.5)" fill="none" stroke="#fff" stroke-linecap="round" stroke-width="2"/>
  </g>
</svg>
