<svg xmlns="http://www.w3.org/2000/svg" xmlns:xlink="http://www.w3.org/1999/xlink" width="55" height="55" viewBox="0 0 55 55">
  <defs>
    <clipPath id="clip-아트보드_1">
      <rect width="55" height="55"/>
    </clipPath>
  </defs>
  <g id="아트보드_1" data-name="아트보드 – 1" clip-path="url(#clip-아트보드_1)">
    <path id="패스_52" data-name="패스 52" d="M15,0H26A15,15,0,0,1,41,15V25A15,15,0,0,1,26,40H15A15,15,0,0,1,0,25V15A15,15,0,0,1,15,0Z" transform="translate(7 8)" fill="#2b44ff"/>
    <path id="패스_60" data-name="패스 60" d="M-3.417-18.653a.562.562,0,0,1-.569.078.728.728,0,0,1-.368-.39.636.636,0,0,1-.033-.424.724.724,0,0,1,.3-.4l2.9-1.873a1,1,0,0,1,.847-.245.57.57,0,0,1,.346.335,1.4,1.4,0,0,1,.1.535L.2-4.916a.712.712,0,0,1-.256.558.71.71,0,0,1-.5.156.627.627,0,0,1-.39-.19.821.821,0,0,1-.212-.479q0-.847-.011-2.1t-.011-2.7q0-1.45-.022-2.977t-.022-2.944q0-1.416-.011-2.6T-1.254-20.1Z" transform="translate(28.795 41.123)" fill="#fff" stroke="#fff" stroke-width="1.7"/>
  </g>
</svg>
