<svg xmlns="http://www.w3.org/2000/svg" xmlns:xlink="http://www.w3.org/1999/xlink" width="55" height="55" viewBox="0 0 55 55">
  <defs>
    <clipPath id="clip-아트보드_1">
      <rect width="55" height="55"/>
    </clipPath>
  </defs>
  <g id="아트보드_1" data-name="아트보드 – 1" clip-path="url(#clip-아트보드_1)">
    <rect width="55" height="55" fill="#fff"/>
    <g id="그룹_82" data-name="그룹 82" transform="translate(0 16.213)">
      <g id="타원_1" data-name="타원 1" transform="translate(0 3.787)" fill="#fff" stroke="#707070" stroke-width="3">
        <ellipse cx="7.5" cy="8" rx="7.5" ry="8" stroke="none"/>
        <ellipse cx="7.5" cy="8" rx="6" ry="6.5" fill="none"/>
      </g>
      <g id="타원_8" data-name="타원 8" transform="translate(20 3.787)" fill="#fff" stroke="#707070" stroke-width="3">
        <ellipse cx="7.5" cy="8" rx="7.5" ry="8" stroke="none"/>
        <ellipse cx="7.5" cy="8" rx="6" ry="6.5" fill="none"/>
      </g>
      <g id="타원_9" data-name="타원 9" transform="translate(40 3.787)" fill="#fff" stroke="#707070" stroke-width="3">
        <ellipse cx="7.5" cy="8" rx="7.5" ry="8" stroke="none"/>
        <ellipse cx="7.5" cy="8" rx="6" ry="6.5" fill="none"/>
      </g>
    </g>
    <g id="CFTV4v4-black-check-mark-vector" transform="translate(23.144 17.213)">
      <g id="layer1" transform="translate(0)">
        <g id="layer1-2">
          <path id="path4068" d="M321.013-455.067l4.738,5.515a43.636,43.636,0,0,1,10.119-13.787c-3.555,2.012-7.473,5.833-10.821,10.56Z" transform="translate(-321.013 463.339)" fill="#2b44ff" stroke="#2b44ff" stroke-width="4"/>
        </g>
      </g>
    </g>
  </g>
</svg>
